<svg xmlns="http://www.w3.org/2000/svg" xmlns:xlink="http://www.w3.org/1999/xlink" width="563" height="429" viewBox="0 0 563 429">
  <defs>
    <clipPath id="clip-path">
      <rect width="563" height="429" fill="none"/>
    </clipPath>
  </defs>
  <g id="リピートグリッド_1" data-name="リピートグリッド 1" clip-path="url(#clip-path)">
    <g transform="translate(902 615)">
      <circle id="楕円形_6" data-name="楕円形 6" cx="13.5" cy="13.5" r="13.5" transform="translate(-902 -615)" fill="rgba(255,255,255,0.38)"/>
      <circle id="楕円形_7" data-name="楕円形 7" cx="13.5" cy="13.5" r="13.5" transform="translate(-902 -615)" fill="rgba(255,255,255,0.38)"/>
      <circle id="楕円形_8" data-name="楕円形 8" cx="13.5" cy="13.5" r="13.5" transform="translate(-865 -615)" fill="rgba(255,255,255,0.38)"/>
      <circle id="楕円形_9" data-name="楕円形 9" cx="13.5" cy="13.5" r="13.5" transform="translate(-865 -615)" fill="rgba(255,255,255,0.38)"/>
      <circle id="楕円形_10" data-name="楕円形 10" cx="13.5" cy="13.5" r="13.5" transform="translate(-902 -577)" fill="rgba(255,255,255,0.38)"/>
      <circle id="楕円形_11" data-name="楕円形 11" cx="13.5" cy="13.5" r="13.5" transform="translate(-865 -577)" fill="rgba(255,255,255,0.38)"/>
    </g>
    <g transform="translate(986 615)">
      <circle id="楕円形_6-2" data-name="楕円形 6" cx="13.5" cy="13.5" r="13.5" transform="translate(-902 -615)" fill="rgba(255,255,255,0.38)"/>
      <circle id="楕円形_7-2" data-name="楕円形 7" cx="13.5" cy="13.5" r="13.5" transform="translate(-902 -615)" fill="rgba(255,255,255,0.38)"/>
      <circle id="楕円形_8-2" data-name="楕円形 8" cx="13.5" cy="13.5" r="13.5" transform="translate(-865 -615)" fill="rgba(255,255,255,0.38)"/>
      <circle id="楕円形_9-2" data-name="楕円形 9" cx="13.5" cy="13.5" r="13.5" transform="translate(-865 -615)" fill="rgba(255,255,255,0.38)"/>
      <circle id="楕円形_10-2" data-name="楕円形 10" cx="13.5" cy="13.5" r="13.5" transform="translate(-902 -577)" fill="rgba(255,255,255,0.38)"/>
      <circle id="楕円形_11-2" data-name="楕円形 11" cx="13.5" cy="13.5" r="13.5" transform="translate(-865 -577)" fill="rgba(255,255,255,0.38)"/>
    </g>
    <g transform="translate(1070 615)">
      <circle id="楕円形_6-3" data-name="楕円形 6" cx="13.5" cy="13.5" r="13.5" transform="translate(-902 -615)" fill="rgba(255,255,255,0.38)"/>
      <circle id="楕円形_7-3" data-name="楕円形 7" cx="13.5" cy="13.5" r="13.5" transform="translate(-902 -615)" fill="rgba(255,255,255,0.38)"/>
      <circle id="楕円形_8-3" data-name="楕円形 8" cx="13.5" cy="13.5" r="13.5" transform="translate(-865 -615)" fill="rgba(255,255,255,0.38)"/>
      <circle id="楕円形_9-3" data-name="楕円形 9" cx="13.5" cy="13.5" r="13.5" transform="translate(-865 -615)" fill="rgba(255,255,255,0.38)"/>
      <circle id="楕円形_10-3" data-name="楕円形 10" cx="13.5" cy="13.5" r="13.5" transform="translate(-902 -577)" fill="rgba(255,255,255,0.38)"/>
      <circle id="楕円形_11-3" data-name="楕円形 11" cx="13.5" cy="13.5" r="13.5" transform="translate(-865 -577)" fill="rgba(255,255,255,0.38)"/>
    </g>
    <g transform="translate(1154 615)">
      <circle id="楕円形_6-4" data-name="楕円形 6" cx="13.5" cy="13.5" r="13.5" transform="translate(-902 -615)" fill="rgba(255,255,255,0.38)"/>
      <circle id="楕円形_7-4" data-name="楕円形 7" cx="13.5" cy="13.5" r="13.5" transform="translate(-902 -615)" fill="rgba(255,255,255,0.38)"/>
      <circle id="楕円形_8-4" data-name="楕円形 8" cx="13.5" cy="13.5" r="13.5" transform="translate(-865 -615)" fill="rgba(255,255,255,0.38)"/>
      <circle id="楕円形_9-4" data-name="楕円形 9" cx="13.5" cy="13.5" r="13.5" transform="translate(-865 -615)" fill="rgba(255,255,255,0.38)"/>
      <circle id="楕円形_10-4" data-name="楕円形 10" cx="13.5" cy="13.5" r="13.5" transform="translate(-902 -577)" fill="rgba(255,255,255,0.38)"/>
      <circle id="楕円形_11-4" data-name="楕円形 11" cx="13.5" cy="13.5" r="13.5" transform="translate(-865 -577)" fill="rgba(255,255,255,0.38)"/>
    </g>
    <g transform="translate(1238 615)">
      <circle id="楕円形_6-5" data-name="楕円形 6" cx="13.5" cy="13.5" r="13.5" transform="translate(-902 -615)" fill="rgba(255,255,255,0.38)"/>
      <circle id="楕円形_7-5" data-name="楕円形 7" cx="13.5" cy="13.5" r="13.5" transform="translate(-902 -615)" fill="rgba(255,255,255,0.38)"/>
      <circle id="楕円形_8-5" data-name="楕円形 8" cx="13.5" cy="13.5" r="13.5" transform="translate(-865 -615)" fill="rgba(255,255,255,0.38)"/>
      <circle id="楕円形_9-5" data-name="楕円形 9" cx="13.5" cy="13.5" r="13.5" transform="translate(-865 -615)" fill="rgba(255,255,255,0.38)"/>
      <circle id="楕円形_10-5" data-name="楕円形 10" cx="13.5" cy="13.5" r="13.5" transform="translate(-902 -577)" fill="rgba(255,255,255,0.38)"/>
      <circle id="楕円形_11-5" data-name="楕円形 11" cx="13.5" cy="13.5" r="13.5" transform="translate(-865 -577)" fill="rgba(255,255,255,0.38)"/>
    </g>
    <g transform="translate(1322 615)">
      <circle id="楕円形_6-6" data-name="楕円形 6" cx="13.5" cy="13.5" r="13.5" transform="translate(-902 -615)" fill="rgba(255,255,255,0.38)"/>
      <circle id="楕円形_7-6" data-name="楕円形 7" cx="13.5" cy="13.5" r="13.5" transform="translate(-902 -615)" fill="rgba(255,255,255,0.38)"/>
      <circle id="楕円形_8-6" data-name="楕円形 8" cx="13.5" cy="13.5" r="13.5" transform="translate(-865 -615)" fill="rgba(255,255,255,0.38)"/>
      <circle id="楕円形_9-6" data-name="楕円形 9" cx="13.5" cy="13.5" r="13.5" transform="translate(-865 -615)" fill="rgba(255,255,255,0.38)"/>
      <circle id="楕円形_10-6" data-name="楕円形 10" cx="13.5" cy="13.5" r="13.5" transform="translate(-902 -577)" fill="rgba(255,255,255,0.38)"/>
      <circle id="楕円形_11-6" data-name="楕円形 11" cx="13.5" cy="13.5" r="13.5" transform="translate(-865 -577)" fill="rgba(255,255,255,0.38)"/>
    </g>
    <g transform="translate(1406 615)">
      <circle id="楕円形_6-7" data-name="楕円形 6" cx="13.5" cy="13.5" r="13.5" transform="translate(-902 -615)" fill="rgba(255,255,255,0.38)"/>
      <circle id="楕円形_7-7" data-name="楕円形 7" cx="13.5" cy="13.5" r="13.5" transform="translate(-902 -615)" fill="rgba(255,255,255,0.38)"/>
      <circle id="楕円形_8-7" data-name="楕円形 8" cx="13.5" cy="13.5" r="13.5" transform="translate(-865 -615)" fill="rgba(255,255,255,0.38)"/>
      <circle id="楕円形_9-7" data-name="楕円形 9" cx="13.5" cy="13.5" r="13.5" transform="translate(-865 -615)" fill="rgba(255,255,255,0.38)"/>
      <circle id="楕円形_10-7" data-name="楕円形 10" cx="13.5" cy="13.5" r="13.5" transform="translate(-902 -577)" fill="rgba(255,255,255,0.38)"/>
      <circle id="楕円形_11-7" data-name="楕円形 11" cx="13.5" cy="13.5" r="13.5" transform="translate(-865 -577)" fill="rgba(255,255,255,0.38)"/>
    </g>
    <g transform="translate(902 700)">
      <circle id="楕円形_6-8" data-name="楕円形 6" cx="13.5" cy="13.5" r="13.5" transform="translate(-902 -615)" fill="rgba(255,255,255,0.38)"/>
      <circle id="楕円形_7-8" data-name="楕円形 7" cx="13.5" cy="13.5" r="13.5" transform="translate(-902 -615)" fill="rgba(255,255,255,0.38)"/>
      <circle id="楕円形_8-8" data-name="楕円形 8" cx="13.5" cy="13.5" r="13.5" transform="translate(-865 -615)" fill="rgba(255,255,255,0.38)"/>
      <circle id="楕円形_9-8" data-name="楕円形 9" cx="13.5" cy="13.5" r="13.5" transform="translate(-865 -615)" fill="rgba(255,255,255,0.38)"/>
      <circle id="楕円形_10-8" data-name="楕円形 10" cx="13.5" cy="13.5" r="13.5" transform="translate(-902 -577)" fill="rgba(255,255,255,0.38)"/>
      <circle id="楕円形_11-8" data-name="楕円形 11" cx="13.5" cy="13.5" r="13.5" transform="translate(-865 -577)" fill="rgba(255,255,255,0.38)"/>
    </g>
    <g transform="translate(986 700)">
      <circle id="楕円形_6-9" data-name="楕円形 6" cx="13.5" cy="13.5" r="13.5" transform="translate(-902 -615)" fill="rgba(255,255,255,0.38)"/>
      <circle id="楕円形_7-9" data-name="楕円形 7" cx="13.5" cy="13.5" r="13.5" transform="translate(-902 -615)" fill="rgba(255,255,255,0.38)"/>
      <circle id="楕円形_8-9" data-name="楕円形 8" cx="13.5" cy="13.5" r="13.5" transform="translate(-865 -615)" fill="rgba(255,255,255,0.38)"/>
      <circle id="楕円形_9-9" data-name="楕円形 9" cx="13.5" cy="13.5" r="13.5" transform="translate(-865 -615)" fill="rgba(255,255,255,0.38)"/>
      <circle id="楕円形_10-9" data-name="楕円形 10" cx="13.5" cy="13.5" r="13.5" transform="translate(-902 -577)" fill="rgba(255,255,255,0.38)"/>
      <circle id="楕円形_11-9" data-name="楕円形 11" cx="13.5" cy="13.5" r="13.5" transform="translate(-865 -577)" fill="rgba(255,255,255,0.38)"/>
    </g>
    <g transform="translate(1070 700)">
      <circle id="楕円形_6-10" data-name="楕円形 6" cx="13.5" cy="13.5" r="13.5" transform="translate(-902 -615)" fill="rgba(255,255,255,0.38)"/>
      <circle id="楕円形_7-10" data-name="楕円形 7" cx="13.5" cy="13.5" r="13.5" transform="translate(-902 -615)" fill="rgba(255,255,255,0.38)"/>
      <circle id="楕円形_8-10" data-name="楕円形 8" cx="13.5" cy="13.5" r="13.5" transform="translate(-865 -615)" fill="rgba(255,255,255,0.38)"/>
      <circle id="楕円形_9-10" data-name="楕円形 9" cx="13.5" cy="13.5" r="13.5" transform="translate(-865 -615)" fill="rgba(255,255,255,0.38)"/>
      <circle id="楕円形_10-10" data-name="楕円形 10" cx="13.5" cy="13.5" r="13.5" transform="translate(-902 -577)" fill="rgba(255,255,255,0.38)"/>
      <circle id="楕円形_11-10" data-name="楕円形 11" cx="13.5" cy="13.5" r="13.5" transform="translate(-865 -577)" fill="rgba(255,255,255,0.38)"/>
    </g>
    <g transform="translate(1154 700)">
      <circle id="楕円形_6-11" data-name="楕円形 6" cx="13.5" cy="13.5" r="13.5" transform="translate(-902 -615)" fill="rgba(255,255,255,0.38)"/>
      <circle id="楕円形_7-11" data-name="楕円形 7" cx="13.5" cy="13.5" r="13.5" transform="translate(-902 -615)" fill="rgba(255,255,255,0.38)"/>
      <circle id="楕円形_8-11" data-name="楕円形 8" cx="13.5" cy="13.5" r="13.5" transform="translate(-865 -615)" fill="rgba(255,255,255,0.38)"/>
      <circle id="楕円形_9-11" data-name="楕円形 9" cx="13.5" cy="13.5" r="13.5" transform="translate(-865 -615)" fill="rgba(255,255,255,0.38)"/>
      <circle id="楕円形_10-11" data-name="楕円形 10" cx="13.5" cy="13.5" r="13.5" transform="translate(-902 -577)" fill="rgba(255,255,255,0.38)"/>
      <circle id="楕円形_11-11" data-name="楕円形 11" cx="13.5" cy="13.5" r="13.5" transform="translate(-865 -577)" fill="rgba(255,255,255,0.38)"/>
    </g>
    <g transform="translate(1238 700)">
      <circle id="楕円形_6-12" data-name="楕円形 6" cx="13.5" cy="13.5" r="13.5" transform="translate(-902 -615)" fill="rgba(255,255,255,0.38)"/>
      <circle id="楕円形_7-12" data-name="楕円形 7" cx="13.5" cy="13.5" r="13.5" transform="translate(-902 -615)" fill="rgba(255,255,255,0.38)"/>
      <circle id="楕円形_8-12" data-name="楕円形 8" cx="13.5" cy="13.5" r="13.5" transform="translate(-865 -615)" fill="rgba(255,255,255,0.38)"/>
      <circle id="楕円形_9-12" data-name="楕円形 9" cx="13.5" cy="13.5" r="13.5" transform="translate(-865 -615)" fill="rgba(255,255,255,0.38)"/>
      <circle id="楕円形_10-12" data-name="楕円形 10" cx="13.5" cy="13.5" r="13.5" transform="translate(-902 -577)" fill="rgba(255,255,255,0.38)"/>
      <circle id="楕円形_11-12" data-name="楕円形 11" cx="13.5" cy="13.5" r="13.5" transform="translate(-865 -577)" fill="rgba(255,255,255,0.38)"/>
    </g>
    <g transform="translate(1322 700)">
      <circle id="楕円形_6-13" data-name="楕円形 6" cx="13.5" cy="13.5" r="13.5" transform="translate(-902 -615)" fill="rgba(255,255,255,0.38)"/>
      <circle id="楕円形_7-13" data-name="楕円形 7" cx="13.5" cy="13.5" r="13.5" transform="translate(-902 -615)" fill="rgba(255,255,255,0.38)"/>
      <circle id="楕円形_8-13" data-name="楕円形 8" cx="13.5" cy="13.5" r="13.5" transform="translate(-865 -615)" fill="rgba(255,255,255,0.38)"/>
      <circle id="楕円形_9-13" data-name="楕円形 9" cx="13.5" cy="13.5" r="13.5" transform="translate(-865 -615)" fill="rgba(255,255,255,0.38)"/>
      <circle id="楕円形_10-13" data-name="楕円形 10" cx="13.5" cy="13.5" r="13.5" transform="translate(-902 -577)" fill="rgba(255,255,255,0.38)"/>
      <circle id="楕円形_11-13" data-name="楕円形 11" cx="13.5" cy="13.5" r="13.5" transform="translate(-865 -577)" fill="rgba(255,255,255,0.38)"/>
    </g>
    <g transform="translate(1406 700)">
      <circle id="楕円形_6-14" data-name="楕円形 6" cx="13.5" cy="13.5" r="13.5" transform="translate(-902 -615)" fill="rgba(255,255,255,0.38)"/>
      <circle id="楕円形_7-14" data-name="楕円形 7" cx="13.5" cy="13.5" r="13.5" transform="translate(-902 -615)" fill="rgba(255,255,255,0.38)"/>
      <circle id="楕円形_8-14" data-name="楕円形 8" cx="13.5" cy="13.5" r="13.5" transform="translate(-865 -615)" fill="rgba(255,255,255,0.38)"/>
      <circle id="楕円形_9-14" data-name="楕円形 9" cx="13.5" cy="13.5" r="13.5" transform="translate(-865 -615)" fill="rgba(255,255,255,0.38)"/>
      <circle id="楕円形_10-14" data-name="楕円形 10" cx="13.5" cy="13.5" r="13.5" transform="translate(-902 -577)" fill="rgba(255,255,255,0.38)"/>
      <circle id="楕円形_11-14" data-name="楕円形 11" cx="13.5" cy="13.5" r="13.5" transform="translate(-865 -577)" fill="rgba(255,255,255,0.38)"/>
    </g>
    <g transform="translate(902 785)">
      <circle id="楕円形_6-15" data-name="楕円形 6" cx="13.5" cy="13.5" r="13.5" transform="translate(-902 -615)" fill="rgba(255,255,255,0.38)"/>
      <circle id="楕円形_7-15" data-name="楕円形 7" cx="13.5" cy="13.5" r="13.5" transform="translate(-902 -615)" fill="rgba(255,255,255,0.38)"/>
      <circle id="楕円形_8-15" data-name="楕円形 8" cx="13.5" cy="13.5" r="13.5" transform="translate(-865 -615)" fill="rgba(255,255,255,0.38)"/>
      <circle id="楕円形_9-15" data-name="楕円形 9" cx="13.5" cy="13.5" r="13.5" transform="translate(-865 -615)" fill="rgba(255,255,255,0.38)"/>
      <circle id="楕円形_10-15" data-name="楕円形 10" cx="13.5" cy="13.5" r="13.5" transform="translate(-902 -577)" fill="rgba(255,255,255,0.38)"/>
      <circle id="楕円形_11-15" data-name="楕円形 11" cx="13.5" cy="13.5" r="13.5" transform="translate(-865 -577)" fill="rgba(255,255,255,0.38)"/>
    </g>
    <g transform="translate(986 785)">
      <circle id="楕円形_6-16" data-name="楕円形 6" cx="13.5" cy="13.5" r="13.5" transform="translate(-902 -615)" fill="rgba(255,255,255,0.38)"/>
      <circle id="楕円形_7-16" data-name="楕円形 7" cx="13.5" cy="13.5" r="13.5" transform="translate(-902 -615)" fill="rgba(255,255,255,0.38)"/>
      <circle id="楕円形_8-16" data-name="楕円形 8" cx="13.5" cy="13.5" r="13.5" transform="translate(-865 -615)" fill="rgba(255,255,255,0.38)"/>
      <circle id="楕円形_9-16" data-name="楕円形 9" cx="13.5" cy="13.5" r="13.5" transform="translate(-865 -615)" fill="rgba(255,255,255,0.38)"/>
      <circle id="楕円形_10-16" data-name="楕円形 10" cx="13.5" cy="13.5" r="13.5" transform="translate(-902 -577)" fill="rgba(255,255,255,0.38)"/>
      <circle id="楕円形_11-16" data-name="楕円形 11" cx="13.5" cy="13.5" r="13.5" transform="translate(-865 -577)" fill="rgba(255,255,255,0.38)"/>
    </g>
    <g transform="translate(1070 785)">
      <circle id="楕円形_6-17" data-name="楕円形 6" cx="13.5" cy="13.5" r="13.5" transform="translate(-902 -615)" fill="rgba(255,255,255,0.38)"/>
      <circle id="楕円形_7-17" data-name="楕円形 7" cx="13.5" cy="13.5" r="13.5" transform="translate(-902 -615)" fill="rgba(255,255,255,0.38)"/>
      <circle id="楕円形_8-17" data-name="楕円形 8" cx="13.5" cy="13.5" r="13.5" transform="translate(-865 -615)" fill="rgba(255,255,255,0.38)"/>
      <circle id="楕円形_9-17" data-name="楕円形 9" cx="13.5" cy="13.5" r="13.5" transform="translate(-865 -615)" fill="rgba(255,255,255,0.38)"/>
      <circle id="楕円形_10-17" data-name="楕円形 10" cx="13.5" cy="13.5" r="13.5" transform="translate(-902 -577)" fill="rgba(255,255,255,0.38)"/>
      <circle id="楕円形_11-17" data-name="楕円形 11" cx="13.5" cy="13.5" r="13.5" transform="translate(-865 -577)" fill="rgba(255,255,255,0.38)"/>
    </g>
    <g transform="translate(1154 785)">
      <circle id="楕円形_6-18" data-name="楕円形 6" cx="13.5" cy="13.5" r="13.5" transform="translate(-902 -615)" fill="rgba(255,255,255,0.38)"/>
      <circle id="楕円形_7-18" data-name="楕円形 7" cx="13.5" cy="13.5" r="13.5" transform="translate(-902 -615)" fill="rgba(255,255,255,0.38)"/>
      <circle id="楕円形_8-18" data-name="楕円形 8" cx="13.5" cy="13.5" r="13.5" transform="translate(-865 -615)" fill="rgba(255,255,255,0.38)"/>
      <circle id="楕円形_9-18" data-name="楕円形 9" cx="13.5" cy="13.5" r="13.5" transform="translate(-865 -615)" fill="rgba(255,255,255,0.38)"/>
      <circle id="楕円形_10-18" data-name="楕円形 10" cx="13.5" cy="13.5" r="13.5" transform="translate(-902 -577)" fill="rgba(255,255,255,0.38)"/>
      <circle id="楕円形_11-18" data-name="楕円形 11" cx="13.5" cy="13.5" r="13.5" transform="translate(-865 -577)" fill="rgba(255,255,255,0.38)"/>
    </g>
    <g transform="translate(1238 785)">
      <circle id="楕円形_6-19" data-name="楕円形 6" cx="13.5" cy="13.5" r="13.5" transform="translate(-902 -615)" fill="rgba(255,255,255,0.38)"/>
      <circle id="楕円形_7-19" data-name="楕円形 7" cx="13.5" cy="13.5" r="13.5" transform="translate(-902 -615)" fill="rgba(255,255,255,0.38)"/>
      <circle id="楕円形_8-19" data-name="楕円形 8" cx="13.5" cy="13.5" r="13.5" transform="translate(-865 -615)" fill="rgba(255,255,255,0.38)"/>
      <circle id="楕円形_9-19" data-name="楕円形 9" cx="13.5" cy="13.5" r="13.5" transform="translate(-865 -615)" fill="rgba(255,255,255,0.38)"/>
      <circle id="楕円形_10-19" data-name="楕円形 10" cx="13.5" cy="13.5" r="13.5" transform="translate(-902 -577)" fill="rgba(255,255,255,0.38)"/>
      <circle id="楕円形_11-19" data-name="楕円形 11" cx="13.5" cy="13.5" r="13.5" transform="translate(-865 -577)" fill="rgba(255,255,255,0.38)"/>
    </g>
    <g transform="translate(1322 785)">
      <circle id="楕円形_6-20" data-name="楕円形 6" cx="13.5" cy="13.5" r="13.5" transform="translate(-902 -615)" fill="rgba(255,255,255,0.38)"/>
      <circle id="楕円形_7-20" data-name="楕円形 7" cx="13.5" cy="13.5" r="13.5" transform="translate(-902 -615)" fill="rgba(255,255,255,0.38)"/>
      <circle id="楕円形_8-20" data-name="楕円形 8" cx="13.5" cy="13.5" r="13.5" transform="translate(-865 -615)" fill="rgba(255,255,255,0.38)"/>
      <circle id="楕円形_9-20" data-name="楕円形 9" cx="13.5" cy="13.5" r="13.5" transform="translate(-865 -615)" fill="rgba(255,255,255,0.38)"/>
      <circle id="楕円形_10-20" data-name="楕円形 10" cx="13.5" cy="13.5" r="13.5" transform="translate(-902 -577)" fill="rgba(255,255,255,0.38)"/>
      <circle id="楕円形_11-20" data-name="楕円形 11" cx="13.5" cy="13.5" r="13.5" transform="translate(-865 -577)" fill="rgba(255,255,255,0.38)"/>
    </g>
    <g transform="translate(1406 785)">
      <circle id="楕円形_6-21" data-name="楕円形 6" cx="13.5" cy="13.5" r="13.5" transform="translate(-902 -615)" fill="rgba(255,255,255,0.38)"/>
      <circle id="楕円形_7-21" data-name="楕円形 7" cx="13.5" cy="13.5" r="13.5" transform="translate(-902 -615)" fill="rgba(255,255,255,0.38)"/>
      <circle id="楕円形_8-21" data-name="楕円形 8" cx="13.5" cy="13.5" r="13.5" transform="translate(-865 -615)" fill="rgba(255,255,255,0.38)"/>
      <circle id="楕円形_9-21" data-name="楕円形 9" cx="13.5" cy="13.5" r="13.5" transform="translate(-865 -615)" fill="rgba(255,255,255,0.38)"/>
      <circle id="楕円形_10-21" data-name="楕円形 10" cx="13.5" cy="13.5" r="13.5" transform="translate(-902 -577)" fill="rgba(255,255,255,0.38)"/>
      <circle id="楕円形_11-21" data-name="楕円形 11" cx="13.5" cy="13.5" r="13.5" transform="translate(-865 -577)" fill="rgba(255,255,255,0.38)"/>
    </g>
    <g transform="translate(902 870)">
      <circle id="楕円形_6-22" data-name="楕円形 6" cx="13.5" cy="13.5" r="13.5" transform="translate(-902 -615)" fill="rgba(255,255,255,0.38)"/>
      <circle id="楕円形_7-22" data-name="楕円形 7" cx="13.5" cy="13.5" r="13.5" transform="translate(-902 -615)" fill="rgba(255,255,255,0.38)"/>
      <circle id="楕円形_8-22" data-name="楕円形 8" cx="13.5" cy="13.5" r="13.5" transform="translate(-865 -615)" fill="rgba(255,255,255,0.38)"/>
      <circle id="楕円形_9-22" data-name="楕円形 9" cx="13.5" cy="13.5" r="13.5" transform="translate(-865 -615)" fill="rgba(255,255,255,0.38)"/>
      <circle id="楕円形_10-22" data-name="楕円形 10" cx="13.5" cy="13.5" r="13.5" transform="translate(-902 -577)" fill="rgba(255,255,255,0.38)"/>
      <circle id="楕円形_11-22" data-name="楕円形 11" cx="13.5" cy="13.5" r="13.5" transform="translate(-865 -577)" fill="rgba(255,255,255,0.38)"/>
    </g>
    <g transform="translate(986 870)">
      <circle id="楕円形_6-23" data-name="楕円形 6" cx="13.5" cy="13.5" r="13.5" transform="translate(-902 -615)" fill="rgba(255,255,255,0.38)"/>
      <circle id="楕円形_7-23" data-name="楕円形 7" cx="13.5" cy="13.5" r="13.5" transform="translate(-902 -615)" fill="rgba(255,255,255,0.38)"/>
      <circle id="楕円形_8-23" data-name="楕円形 8" cx="13.5" cy="13.5" r="13.5" transform="translate(-865 -615)" fill="rgba(255,255,255,0.38)"/>
      <circle id="楕円形_9-23" data-name="楕円形 9" cx="13.5" cy="13.5" r="13.5" transform="translate(-865 -615)" fill="rgba(255,255,255,0.38)"/>
      <circle id="楕円形_10-23" data-name="楕円形 10" cx="13.5" cy="13.5" r="13.5" transform="translate(-902 -577)" fill="rgba(255,255,255,0.38)"/>
      <circle id="楕円形_11-23" data-name="楕円形 11" cx="13.5" cy="13.5" r="13.5" transform="translate(-865 -577)" fill="rgba(255,255,255,0.38)"/>
    </g>
    <g transform="translate(1070 870)">
      <circle id="楕円形_6-24" data-name="楕円形 6" cx="13.5" cy="13.5" r="13.5" transform="translate(-902 -615)" fill="rgba(255,255,255,0.38)"/>
      <circle id="楕円形_7-24" data-name="楕円形 7" cx="13.5" cy="13.5" r="13.5" transform="translate(-902 -615)" fill="rgba(255,255,255,0.38)"/>
      <circle id="楕円形_8-24" data-name="楕円形 8" cx="13.5" cy="13.5" r="13.5" transform="translate(-865 -615)" fill="rgba(255,255,255,0.38)"/>
      <circle id="楕円形_9-24" data-name="楕円形 9" cx="13.5" cy="13.5" r="13.5" transform="translate(-865 -615)" fill="rgba(255,255,255,0.38)"/>
      <circle id="楕円形_10-24" data-name="楕円形 10" cx="13.5" cy="13.5" r="13.5" transform="translate(-902 -577)" fill="rgba(255,255,255,0.38)"/>
      <circle id="楕円形_11-24" data-name="楕円形 11" cx="13.5" cy="13.5" r="13.5" transform="translate(-865 -577)" fill="rgba(255,255,255,0.38)"/>
    </g>
    <g transform="translate(1154 870)">
      <circle id="楕円形_6-25" data-name="楕円形 6" cx="13.5" cy="13.5" r="13.5" transform="translate(-902 -615)" fill="rgba(255,255,255,0.38)"/>
      <circle id="楕円形_7-25" data-name="楕円形 7" cx="13.5" cy="13.5" r="13.5" transform="translate(-902 -615)" fill="rgba(255,255,255,0.38)"/>
      <circle id="楕円形_8-25" data-name="楕円形 8" cx="13.5" cy="13.5" r="13.5" transform="translate(-865 -615)" fill="rgba(255,255,255,0.38)"/>
      <circle id="楕円形_9-25" data-name="楕円形 9" cx="13.5" cy="13.5" r="13.5" transform="translate(-865 -615)" fill="rgba(255,255,255,0.38)"/>
      <circle id="楕円形_10-25" data-name="楕円形 10" cx="13.5" cy="13.5" r="13.5" transform="translate(-902 -577)" fill="rgba(255,255,255,0.38)"/>
      <circle id="楕円形_11-25" data-name="楕円形 11" cx="13.5" cy="13.5" r="13.5" transform="translate(-865 -577)" fill="rgba(255,255,255,0.38)"/>
    </g>
    <g transform="translate(1238 870)">
      <circle id="楕円形_6-26" data-name="楕円形 6" cx="13.5" cy="13.5" r="13.5" transform="translate(-902 -615)" fill="rgba(255,255,255,0.38)"/>
      <circle id="楕円形_7-26" data-name="楕円形 7" cx="13.5" cy="13.5" r="13.5" transform="translate(-902 -615)" fill="rgba(255,255,255,0.38)"/>
      <circle id="楕円形_8-26" data-name="楕円形 8" cx="13.5" cy="13.5" r="13.5" transform="translate(-865 -615)" fill="rgba(255,255,255,0.38)"/>
      <circle id="楕円形_9-26" data-name="楕円形 9" cx="13.5" cy="13.5" r="13.5" transform="translate(-865 -615)" fill="rgba(255,255,255,0.38)"/>
      <circle id="楕円形_10-26" data-name="楕円形 10" cx="13.5" cy="13.5" r="13.5" transform="translate(-902 -577)" fill="rgba(255,255,255,0.38)"/>
      <circle id="楕円形_11-26" data-name="楕円形 11" cx="13.5" cy="13.5" r="13.5" transform="translate(-865 -577)" fill="rgba(255,255,255,0.38)"/>
    </g>
    <g transform="translate(1322 870)">
      <circle id="楕円形_6-27" data-name="楕円形 6" cx="13.5" cy="13.5" r="13.5" transform="translate(-902 -615)" fill="rgba(255,255,255,0.38)"/>
      <circle id="楕円形_7-27" data-name="楕円形 7" cx="13.5" cy="13.5" r="13.5" transform="translate(-902 -615)" fill="rgba(255,255,255,0.38)"/>
      <circle id="楕円形_8-27" data-name="楕円形 8" cx="13.5" cy="13.5" r="13.5" transform="translate(-865 -615)" fill="rgba(255,255,255,0.38)"/>
      <circle id="楕円形_9-27" data-name="楕円形 9" cx="13.5" cy="13.5" r="13.5" transform="translate(-865 -615)" fill="rgba(255,255,255,0.38)"/>
      <circle id="楕円形_10-27" data-name="楕円形 10" cx="13.5" cy="13.5" r="13.5" transform="translate(-902 -577)" fill="rgba(255,255,255,0.38)"/>
      <circle id="楕円形_11-27" data-name="楕円形 11" cx="13.5" cy="13.5" r="13.5" transform="translate(-865 -577)" fill="rgba(255,255,255,0.38)"/>
    </g>
    <g transform="translate(1406 870)">
      <circle id="楕円形_6-28" data-name="楕円形 6" cx="13.5" cy="13.5" r="13.5" transform="translate(-902 -615)" fill="rgba(255,255,255,0.38)"/>
      <circle id="楕円形_7-28" data-name="楕円形 7" cx="13.5" cy="13.5" r="13.5" transform="translate(-902 -615)" fill="rgba(255,255,255,0.38)"/>
      <circle id="楕円形_8-28" data-name="楕円形 8" cx="13.5" cy="13.5" r="13.5" transform="translate(-865 -615)" fill="rgba(255,255,255,0.38)"/>
      <circle id="楕円形_9-28" data-name="楕円形 9" cx="13.5" cy="13.5" r="13.5" transform="translate(-865 -615)" fill="rgba(255,255,255,0.38)"/>
      <circle id="楕円形_10-28" data-name="楕円形 10" cx="13.5" cy="13.5" r="13.5" transform="translate(-902 -577)" fill="rgba(255,255,255,0.38)"/>
      <circle id="楕円形_11-28" data-name="楕円形 11" cx="13.5" cy="13.5" r="13.5" transform="translate(-865 -577)" fill="rgba(255,255,255,0.38)"/>
    </g>
    <g transform="translate(902 955)">
      <circle id="楕円形_6-29" data-name="楕円形 6" cx="13.5" cy="13.5" r="13.5" transform="translate(-902 -615)" fill="rgba(255,255,255,0.38)"/>
      <circle id="楕円形_7-29" data-name="楕円形 7" cx="13.5" cy="13.5" r="13.5" transform="translate(-902 -615)" fill="rgba(255,255,255,0.38)"/>
      <circle id="楕円形_8-29" data-name="楕円形 8" cx="13.5" cy="13.5" r="13.5" transform="translate(-865 -615)" fill="rgba(255,255,255,0.38)"/>
      <circle id="楕円形_9-29" data-name="楕円形 9" cx="13.5" cy="13.5" r="13.5" transform="translate(-865 -615)" fill="rgba(255,255,255,0.38)"/>
      <circle id="楕円形_10-29" data-name="楕円形 10" cx="13.5" cy="13.5" r="13.5" transform="translate(-902 -577)" fill="rgba(255,255,255,0.38)"/>
      <circle id="楕円形_11-29" data-name="楕円形 11" cx="13.5" cy="13.5" r="13.5" transform="translate(-865 -577)" fill="rgba(255,255,255,0.38)"/>
    </g>
    <g transform="translate(986 955)">
      <circle id="楕円形_6-30" data-name="楕円形 6" cx="13.5" cy="13.5" r="13.5" transform="translate(-902 -615)" fill="rgba(255,255,255,0.38)"/>
      <circle id="楕円形_7-30" data-name="楕円形 7" cx="13.5" cy="13.5" r="13.5" transform="translate(-902 -615)" fill="rgba(255,255,255,0.38)"/>
      <circle id="楕円形_8-30" data-name="楕円形 8" cx="13.5" cy="13.5" r="13.5" transform="translate(-865 -615)" fill="rgba(255,255,255,0.38)"/>
      <circle id="楕円形_9-30" data-name="楕円形 9" cx="13.5" cy="13.5" r="13.5" transform="translate(-865 -615)" fill="rgba(255,255,255,0.38)"/>
      <circle id="楕円形_10-30" data-name="楕円形 10" cx="13.5" cy="13.5" r="13.5" transform="translate(-902 -577)" fill="rgba(255,255,255,0.38)"/>
      <circle id="楕円形_11-30" data-name="楕円形 11" cx="13.5" cy="13.5" r="13.5" transform="translate(-865 -577)" fill="rgba(255,255,255,0.38)"/>
    </g>
    <g transform="translate(1070 955)">
      <circle id="楕円形_6-31" data-name="楕円形 6" cx="13.5" cy="13.5" r="13.5" transform="translate(-902 -615)" fill="rgba(255,255,255,0.38)"/>
      <circle id="楕円形_7-31" data-name="楕円形 7" cx="13.5" cy="13.5" r="13.5" transform="translate(-902 -615)" fill="rgba(255,255,255,0.38)"/>
      <circle id="楕円形_8-31" data-name="楕円形 8" cx="13.5" cy="13.5" r="13.5" transform="translate(-865 -615)" fill="rgba(255,255,255,0.38)"/>
      <circle id="楕円形_9-31" data-name="楕円形 9" cx="13.5" cy="13.5" r="13.5" transform="translate(-865 -615)" fill="rgba(255,255,255,0.38)"/>
      <circle id="楕円形_10-31" data-name="楕円形 10" cx="13.5" cy="13.5" r="13.5" transform="translate(-902 -577)" fill="rgba(255,255,255,0.38)"/>
      <circle id="楕円形_11-31" data-name="楕円形 11" cx="13.5" cy="13.5" r="13.5" transform="translate(-865 -577)" fill="rgba(255,255,255,0.38)"/>
    </g>
    <g transform="translate(1154 955)">
      <circle id="楕円形_6-32" data-name="楕円形 6" cx="13.5" cy="13.5" r="13.5" transform="translate(-902 -615)" fill="rgba(255,255,255,0.38)"/>
      <circle id="楕円形_7-32" data-name="楕円形 7" cx="13.5" cy="13.5" r="13.5" transform="translate(-902 -615)" fill="rgba(255,255,255,0.38)"/>
      <circle id="楕円形_8-32" data-name="楕円形 8" cx="13.5" cy="13.5" r="13.5" transform="translate(-865 -615)" fill="rgba(255,255,255,0.38)"/>
      <circle id="楕円形_9-32" data-name="楕円形 9" cx="13.5" cy="13.5" r="13.5" transform="translate(-865 -615)" fill="rgba(255,255,255,0.38)"/>
      <circle id="楕円形_10-32" data-name="楕円形 10" cx="13.5" cy="13.5" r="13.5" transform="translate(-902 -577)" fill="rgba(255,255,255,0.38)"/>
      <circle id="楕円形_11-32" data-name="楕円形 11" cx="13.5" cy="13.5" r="13.5" transform="translate(-865 -577)" fill="rgba(255,255,255,0.38)"/>
    </g>
    <g transform="translate(1238 955)">
      <circle id="楕円形_6-33" data-name="楕円形 6" cx="13.5" cy="13.5" r="13.5" transform="translate(-902 -615)" fill="rgba(255,255,255,0.38)"/>
      <circle id="楕円形_7-33" data-name="楕円形 7" cx="13.5" cy="13.5" r="13.5" transform="translate(-902 -615)" fill="rgba(255,255,255,0.38)"/>
      <circle id="楕円形_8-33" data-name="楕円形 8" cx="13.5" cy="13.5" r="13.5" transform="translate(-865 -615)" fill="rgba(255,255,255,0.38)"/>
      <circle id="楕円形_9-33" data-name="楕円形 9" cx="13.5" cy="13.5" r="13.5" transform="translate(-865 -615)" fill="rgba(255,255,255,0.38)"/>
      <circle id="楕円形_10-33" data-name="楕円形 10" cx="13.5" cy="13.5" r="13.5" transform="translate(-902 -577)" fill="rgba(255,255,255,0.38)"/>
      <circle id="楕円形_11-33" data-name="楕円形 11" cx="13.5" cy="13.5" r="13.5" transform="translate(-865 -577)" fill="rgba(255,255,255,0.38)"/>
    </g>
    <g transform="translate(1322 955)">
      <circle id="楕円形_6-34" data-name="楕円形 6" cx="13.5" cy="13.5" r="13.5" transform="translate(-902 -615)" fill="rgba(255,255,255,0.38)"/>
      <circle id="楕円形_7-34" data-name="楕円形 7" cx="13.5" cy="13.5" r="13.5" transform="translate(-902 -615)" fill="rgba(255,255,255,0.38)"/>
      <circle id="楕円形_8-34" data-name="楕円形 8" cx="13.5" cy="13.5" r="13.5" transform="translate(-865 -615)" fill="rgba(255,255,255,0.38)"/>
      <circle id="楕円形_9-34" data-name="楕円形 9" cx="13.5" cy="13.5" r="13.5" transform="translate(-865 -615)" fill="rgba(255,255,255,0.38)"/>
      <circle id="楕円形_10-34" data-name="楕円形 10" cx="13.5" cy="13.5" r="13.5" transform="translate(-902 -577)" fill="rgba(255,255,255,0.38)"/>
      <circle id="楕円形_11-34" data-name="楕円形 11" cx="13.5" cy="13.5" r="13.5" transform="translate(-865 -577)" fill="rgba(255,255,255,0.38)"/>
    </g>
    <g transform="translate(1406 955)">
      <circle id="楕円形_6-35" data-name="楕円形 6" cx="13.5" cy="13.5" r="13.5" transform="translate(-902 -615)" fill="rgba(255,255,255,0.38)"/>
      <circle id="楕円形_7-35" data-name="楕円形 7" cx="13.5" cy="13.5" r="13.5" transform="translate(-902 -615)" fill="rgba(255,255,255,0.38)"/>
      <circle id="楕円形_8-35" data-name="楕円形 8" cx="13.5" cy="13.5" r="13.5" transform="translate(-865 -615)" fill="rgba(255,255,255,0.38)"/>
      <circle id="楕円形_9-35" data-name="楕円形 9" cx="13.5" cy="13.5" r="13.5" transform="translate(-865 -615)" fill="rgba(255,255,255,0.38)"/>
      <circle id="楕円形_10-35" data-name="楕円形 10" cx="13.5" cy="13.5" r="13.5" transform="translate(-902 -577)" fill="rgba(255,255,255,0.38)"/>
      <circle id="楕円形_11-35" data-name="楕円形 11" cx="13.5" cy="13.5" r="13.5" transform="translate(-865 -577)" fill="rgba(255,255,255,0.38)"/>
    </g>
    <g transform="translate(902 1040)">
      <circle id="楕円形_6-36" data-name="楕円形 6" cx="13.5" cy="13.5" r="13.5" transform="translate(-902 -615)" fill="rgba(255,255,255,0.38)"/>
      <circle id="楕円形_7-36" data-name="楕円形 7" cx="13.5" cy="13.5" r="13.5" transform="translate(-902 -615)" fill="rgba(255,255,255,0.38)"/>
      <circle id="楕円形_8-36" data-name="楕円形 8" cx="13.5" cy="13.5" r="13.5" transform="translate(-865 -615)" fill="rgba(255,255,255,0.38)"/>
      <circle id="楕円形_9-36" data-name="楕円形 9" cx="13.5" cy="13.5" r="13.5" transform="translate(-865 -615)" fill="rgba(255,255,255,0.38)"/>
      <circle id="楕円形_10-36" data-name="楕円形 10" cx="13.5" cy="13.5" r="13.5" transform="translate(-902 -577)" fill="rgba(255,255,255,0.38)"/>
      <circle id="楕円形_11-36" data-name="楕円形 11" cx="13.5" cy="13.5" r="13.5" transform="translate(-865 -577)" fill="rgba(255,255,255,0.38)"/>
    </g>
    <g transform="translate(986 1040)">
      <circle id="楕円形_6-37" data-name="楕円形 6" cx="13.5" cy="13.5" r="13.5" transform="translate(-902 -615)" fill="rgba(255,255,255,0.38)"/>
      <circle id="楕円形_7-37" data-name="楕円形 7" cx="13.5" cy="13.5" r="13.5" transform="translate(-902 -615)" fill="rgba(255,255,255,0.38)"/>
      <circle id="楕円形_8-37" data-name="楕円形 8" cx="13.5" cy="13.5" r="13.5" transform="translate(-865 -615)" fill="rgba(255,255,255,0.38)"/>
      <circle id="楕円形_9-37" data-name="楕円形 9" cx="13.5" cy="13.5" r="13.5" transform="translate(-865 -615)" fill="rgba(255,255,255,0.38)"/>
      <circle id="楕円形_10-37" data-name="楕円形 10" cx="13.5" cy="13.5" r="13.5" transform="translate(-902 -577)" fill="rgba(255,255,255,0.38)"/>
      <circle id="楕円形_11-37" data-name="楕円形 11" cx="13.5" cy="13.5" r="13.5" transform="translate(-865 -577)" fill="rgba(255,255,255,0.38)"/>
    </g>
    <g transform="translate(1070 1040)">
      <circle id="楕円形_6-38" data-name="楕円形 6" cx="13.5" cy="13.5" r="13.5" transform="translate(-902 -615)" fill="rgba(255,255,255,0.38)"/>
      <circle id="楕円形_7-38" data-name="楕円形 7" cx="13.5" cy="13.5" r="13.5" transform="translate(-902 -615)" fill="rgba(255,255,255,0.38)"/>
      <circle id="楕円形_8-38" data-name="楕円形 8" cx="13.5" cy="13.5" r="13.5" transform="translate(-865 -615)" fill="rgba(255,255,255,0.38)"/>
      <circle id="楕円形_9-38" data-name="楕円形 9" cx="13.5" cy="13.5" r="13.5" transform="translate(-865 -615)" fill="rgba(255,255,255,0.38)"/>
      <circle id="楕円形_10-38" data-name="楕円形 10" cx="13.5" cy="13.5" r="13.5" transform="translate(-902 -577)" fill="rgba(255,255,255,0.38)"/>
      <circle id="楕円形_11-38" data-name="楕円形 11" cx="13.5" cy="13.5" r="13.5" transform="translate(-865 -577)" fill="rgba(255,255,255,0.38)"/>
    </g>
    <g transform="translate(1154 1040)">
      <circle id="楕円形_6-39" data-name="楕円形 6" cx="13.5" cy="13.5" r="13.5" transform="translate(-902 -615)" fill="rgba(255,255,255,0.38)"/>
      <circle id="楕円形_7-39" data-name="楕円形 7" cx="13.5" cy="13.5" r="13.5" transform="translate(-902 -615)" fill="rgba(255,255,255,0.38)"/>
      <circle id="楕円形_8-39" data-name="楕円形 8" cx="13.5" cy="13.5" r="13.5" transform="translate(-865 -615)" fill="rgba(255,255,255,0.38)"/>
      <circle id="楕円形_9-39" data-name="楕円形 9" cx="13.5" cy="13.5" r="13.5" transform="translate(-865 -615)" fill="rgba(255,255,255,0.38)"/>
      <circle id="楕円形_10-39" data-name="楕円形 10" cx="13.5" cy="13.5" r="13.5" transform="translate(-902 -577)" fill="rgba(255,255,255,0.38)"/>
      <circle id="楕円形_11-39" data-name="楕円形 11" cx="13.5" cy="13.5" r="13.5" transform="translate(-865 -577)" fill="rgba(255,255,255,0.38)"/>
    </g>
    <g transform="translate(1238 1040)">
      <circle id="楕円形_6-40" data-name="楕円形 6" cx="13.5" cy="13.5" r="13.5" transform="translate(-902 -615)" fill="rgba(255,255,255,0.38)"/>
      <circle id="楕円形_7-40" data-name="楕円形 7" cx="13.5" cy="13.5" r="13.5" transform="translate(-902 -615)" fill="rgba(255,255,255,0.38)"/>
      <circle id="楕円形_8-40" data-name="楕円形 8" cx="13.5" cy="13.5" r="13.5" transform="translate(-865 -615)" fill="rgba(255,255,255,0.38)"/>
      <circle id="楕円形_9-40" data-name="楕円形 9" cx="13.5" cy="13.5" r="13.5" transform="translate(-865 -615)" fill="rgba(255,255,255,0.38)"/>
      <circle id="楕円形_10-40" data-name="楕円形 10" cx="13.5" cy="13.5" r="13.5" transform="translate(-902 -577)" fill="rgba(255,255,255,0.38)"/>
      <circle id="楕円形_11-40" data-name="楕円形 11" cx="13.5" cy="13.5" r="13.5" transform="translate(-865 -577)" fill="rgba(255,255,255,0.38)"/>
    </g>
    <g transform="translate(1322 1040)">
      <circle id="楕円形_6-41" data-name="楕円形 6" cx="13.5" cy="13.5" r="13.5" transform="translate(-902 -615)" fill="rgba(255,255,255,0.38)"/>
      <circle id="楕円形_7-41" data-name="楕円形 7" cx="13.5" cy="13.5" r="13.5" transform="translate(-902 -615)" fill="rgba(255,255,255,0.38)"/>
      <circle id="楕円形_8-41" data-name="楕円形 8" cx="13.5" cy="13.5" r="13.5" transform="translate(-865 -615)" fill="rgba(255,255,255,0.38)"/>
      <circle id="楕円形_9-41" data-name="楕円形 9" cx="13.5" cy="13.5" r="13.5" transform="translate(-865 -615)" fill="rgba(255,255,255,0.38)"/>
      <circle id="楕円形_10-41" data-name="楕円形 10" cx="13.5" cy="13.5" r="13.5" transform="translate(-902 -577)" fill="rgba(255,255,255,0.38)"/>
      <circle id="楕円形_11-41" data-name="楕円形 11" cx="13.5" cy="13.5" r="13.5" transform="translate(-865 -577)" fill="rgba(255,255,255,0.38)"/>
    </g>
    <g transform="translate(1406 1040)">
      <circle id="楕円形_6-42" data-name="楕円形 6" cx="13.5" cy="13.5" r="13.5" transform="translate(-902 -615)" fill="rgba(255,255,255,0.38)"/>
      <circle id="楕円形_7-42" data-name="楕円形 7" cx="13.5" cy="13.5" r="13.5" transform="translate(-902 -615)" fill="rgba(255,255,255,0.38)"/>
      <circle id="楕円形_8-42" data-name="楕円形 8" cx="13.5" cy="13.5" r="13.5" transform="translate(-865 -615)" fill="rgba(255,255,255,0.38)"/>
      <circle id="楕円形_9-42" data-name="楕円形 9" cx="13.5" cy="13.5" r="13.5" transform="translate(-865 -615)" fill="rgba(255,255,255,0.38)"/>
      <circle id="楕円形_10-42" data-name="楕円形 10" cx="13.5" cy="13.5" r="13.5" transform="translate(-902 -577)" fill="rgba(255,255,255,0.38)"/>
      <circle id="楕円形_11-42" data-name="楕円形 11" cx="13.5" cy="13.5" r="13.5" transform="translate(-865 -577)" fill="rgba(255,255,255,0.38)"/>
    </g>
  </g>
</svg>
